<svg width="176" height="20" viewBox="0 0 176 20" fill="none" xmlns="http://www.w3.org/2000/svg">
<g clip-path="url(#clip0_270_2440)">
<path d="M94.2067 8.50363L98.6659 4.16017L97.7328 3.28223L92.3408 6.73234L91.0281 0.571426H89.7157V7.70268C89.7157 7.91834 89.6365 8.11857 89.4626 8.288C89.2886 8.4574 89.0991 8.53443 88.8618 8.53443H81.5405V9.8128L87.8657 11.0912L83.4064 15.4347L84.3392 16.3434L89.7316 12.8933L91.0439 19.0542H92.3566V11.9229C92.3566 11.7073 92.4355 11.5071 92.6095 11.3377C92.7834 11.1682 92.9732 11.0912 93.2105 11.0912H100.532V9.8128L94.2383 8.51903H94.2067V8.50363Z" fill="#1D76F3"/>
<path d="M121.5 14.526C120.282 14.526 119.539 14.0023 119.539 13.1706C119.539 12.3389 119.681 12.1233 121.104 12.0616L124.204 11.923C124.172 13.5865 123.176 14.526 121.532 14.4952L121.5 14.526ZM122.132 6.71703C119.713 6.71703 118.242 7.8568 118.163 9.75128V9.88991H120.061V9.75128C120.092 8.81174 120.82 8.28808 122.164 8.28808C123.508 8.28808 124.235 8.87337 124.235 10.0901V10.429L121.136 10.5676C118.353 10.6754 117.752 12.0616 117.752 13.2168C117.752 15.0189 119.175 16.1433 121.389 16.1433C123.603 16.1433 123.571 15.7582 124.22 14.9265V15.8968H126.007V10.198C126.007 7.93383 124.647 6.71703 122.116 6.71703H122.132Z" fill="black"/>
<path d="M134.561 11.4301C134.561 13.34 133.454 14.4952 131.636 14.4952C129.817 14.4952 128.711 13.3092 128.711 11.4301C128.711 9.55106 129.817 8.33426 131.636 8.33426C133.454 8.33426 134.561 9.52026 134.561 11.4301ZM131.921 6.71703C130.561 6.71703 129.533 7.16369 128.853 8.01083H128.821C128.821 8.04163 128.821 6.96346 128.821 6.96346H126.971V19.0081H128.821V14.7724H128.853C129.501 15.6504 130.561 16.097 131.921 16.097C134.166 16.097 136.427 14.6338 136.427 11.3993C136.427 8.16486 134.182 6.70163 131.921 6.70163V6.71703Z" fill="black"/>
<path d="M145.567 8.59606V6.99421H143.037V4.63766H141.187V6.96341H137.297V15.8659H139.147V8.59606H141.187V13.2629C141.187 15.0342 142.073 15.9122 143.907 15.9122H145.583V14.3103H143.037V8.64226H145.583L145.552 8.58066L145.567 8.59606Z" fill="black"/>
<path d="M150.675 14.5105C148.888 14.5105 147.75 13.3245 147.75 11.4454C147.75 9.56634 148.857 8.34954 150.675 8.34954C152.494 8.34954 153.569 9.53554 153.569 11.4454C153.569 13.3553 152.462 14.5413 150.675 14.5105ZM150.675 6.71691C147.781 6.71691 145.916 8.5652 145.916 11.4146C145.916 14.264 147.781 16.1123 150.675 16.1123C153.569 16.1123 155.435 14.264 155.435 11.4146C155.435 8.5652 153.585 6.68611 150.675 6.68611V6.71691Z" fill="black"/>
<path d="M158.17 3.66745H156.32V15.9123H158.17V3.66745Z" fill="black"/>
<path d="M117.309 11.1375V10.9989H115.459C115.317 13.0782 114.067 14.295 111.965 14.449H111.569C108.928 14.449 107.22 12.6315 107.22 9.81291C107.22 6.99428 108.928 5.17682 111.569 5.17682H111.965C114.067 5.31545 115.317 6.56302 115.459 8.62694H117.309V8.48831C117.309 7.30234 116.851 6.13177 116.06 5.22302C115.269 4.34508 114.162 3.729 112.945 3.55957H112.913C112.708 3.52877 112.518 3.49797 112.312 3.48257C112.091 3.48257 111.854 3.45177 111.601 3.45177C107.821 3.45177 105.276 6.02394 105.276 9.81291C105.276 13.6019 107.806 16.1741 111.601 16.1741C115.396 16.1741 112.091 16.1741 112.312 16.1433C112.534 16.1433 112.708 16.1125 112.913 16.0663C114.131 15.8968 115.238 15.3269 116.028 14.4028C116.851 13.5249 117.309 12.3543 117.309 11.1683V11.1375Z" fill="black"/>
<path d="M139.7 3.35925H137.313V5.5156H139.7V3.35925Z" fill="black"/>
<path d="M167.974 5.50021L169.508 10.4751H166.472L168.006 5.50021H167.974ZM166.598 3.65192L162.93 15.3577V15.8813H164.827L165.966 12.2002H170.061L171.2 15.8813H173.097V15.4039L169.429 3.63652H166.583L166.598 3.65192Z" fill="black"/>
<path d="M175.865 3.65192H173.936V15.9122H175.865V3.65192Z" fill="black"/>
<path d="M5.9415 5.60591C5.4196 5.35174 4.83751 5.23445 4.15504 5.23445H0V15.5379H1.56567V11.2953H4.15504C4.83751 11.2953 5.4196 11.178 5.9415 10.9239C6.46339 10.6697 6.84476 10.3178 7.12577 9.84854C7.40678 9.37931 7.54729 8.85142 7.54729 8.26488C7.54729 7.67834 7.40678 7.13091 7.12577 6.68122C6.84476 6.23157 6.46339 5.87962 5.9415 5.62545V5.60591ZM5.74077 9.12514C5.5802 9.37931 5.35938 9.57482 5.0583 9.71168C4.75722 9.84854 4.41599 9.92674 4.01453 9.92674H1.58574V6.52482H4.01453C4.61671 6.52482 5.07836 6.68122 5.43969 6.99405C5.80099 7.30688 5.98165 7.71745 5.98165 8.22579C5.98165 8.73411 5.90134 8.87097 5.74077 9.12514Z" fill="black"/>
<path d="M13.4688 8.47989C12.8866 8.14752 12.2042 7.99112 11.4615 7.99112C10.7188 7.99112 10.0564 8.14752 9.45422 8.47989C8.85204 8.81226 8.39036 9.26195 8.06922 9.84849C7.74805 10.435 7.56738 11.0802 7.56738 11.8231C7.56738 12.5661 7.72798 13.2113 8.06922 13.7978C8.41045 14.3844 8.8721 14.8341 9.45422 15.1664C10.0363 15.4988 10.6987 15.6552 11.4414 15.6552C12.1841 15.6552 12.8465 15.4988 13.4487 15.1664C14.0308 14.8341 14.4925 14.3844 14.8337 13.7978C15.1749 13.2113 15.3355 12.5661 15.3355 11.8231C15.3355 11.0802 15.1749 10.435 14.8337 9.84849C14.4925 9.26195 14.0308 8.81226 13.4487 8.47989H13.4688ZM13.549 13.1526C13.3483 13.5437 13.0673 13.8565 12.6859 14.0715C12.3246 14.2866 11.9031 14.4039 11.4414 14.4039C10.9797 14.4039 10.5783 14.2866 10.217 14.0715C9.85568 13.8565 9.57466 13.5437 9.37393 13.1526C9.17321 12.7616 9.07283 12.3119 9.07283 11.8036C9.07283 11.2953 9.17321 10.8651 9.37393 10.4741C9.57466 10.0831 9.85568 9.77026 10.217 9.5552C10.5783 9.34015 10.9797 9.22283 11.4414 9.22283C11.9031 9.22283 12.3246 9.34015 12.6859 9.5552C13.0472 9.77026 13.3282 10.0831 13.549 10.4741C13.7498 10.8651 13.8501 11.3148 13.8501 11.8036C13.8501 12.2924 13.7498 12.7421 13.549 13.1526Z" fill="black"/>
<path d="M25.8333 8.10846L23.9666 13.6219L22.0998 8.10846H20.6947L18.828 13.6219L16.9412 8.10846H15.3755L18.0652 15.5184H19.5105L21.3571 10.1809L23.2239 15.5184H24.649L27.3588 8.10846H25.8333Z" fill="black"/>
<path d="M33.1397 8.519C32.5777 8.16706 31.8954 7.99112 31.1324 7.99112C30.3698 7.99112 29.7675 8.14752 29.2055 8.47989C28.6435 8.81226 28.1818 9.26195 27.8606 9.84849C27.5395 10.435 27.3789 11.0802 27.3789 11.8231C27.3789 12.5661 27.5395 13.2113 27.8606 13.7978C28.1818 14.3844 28.6435 14.8341 29.2256 15.1664C29.8077 15.4988 30.49 15.6552 31.2327 15.6552C31.9755 15.6552 32.3568 15.5574 32.8387 15.3424C33.3204 15.1273 33.722 14.8341 34.0229 14.443C34.3239 14.052 34.5248 13.6219 34.6049 13.1526H33.1198C33.0194 13.5437 32.7986 13.8565 32.4574 14.0911C32.116 14.3257 31.6945 14.443 31.1726 14.443C30.6508 14.443 30.3096 14.3453 29.9482 14.1302C29.5869 13.9151 29.326 13.6219 29.1252 13.2113C28.9646 12.8789 28.8844 12.4879 28.8442 12.0578H34.6451C34.7457 11.3148 34.6451 10.6305 34.3843 10.0049C34.1033 9.37926 33.7017 8.89046 33.1198 8.53855L33.1397 8.519ZM28.9245 10.9238C28.9646 10.7087 29.0249 10.5132 29.1051 10.3373C29.2858 9.94623 29.5467 9.65298 29.8881 9.45746C30.2293 9.26195 30.6305 9.16418 31.1125 9.16418C31.5941 9.16418 31.8552 9.24238 32.1764 9.37926C32.4973 9.53566 32.7182 9.73118 32.8989 10.0049C33.0593 10.2786 33.1599 10.5719 33.1599 10.9238H28.9245Z" fill="black"/>
<path d="M40.4062 8.12798C40.1856 8.03021 39.9046 7.99112 39.5432 7.99112C39.1818 7.99112 38.5998 8.1084 38.1783 8.36258C37.7365 8.61675 37.4153 8.92958 37.2147 9.34015V8.12798H35.7292V15.5379H37.2147V12.6052C37.2147 11.9013 37.315 11.3148 37.4957 10.826C37.6963 10.3373 37.9372 9.96578 38.2786 9.71163C38.5998 9.45746 38.9811 9.34015 39.3824 9.34015C39.784 9.34015 39.7239 9.34015 39.8843 9.37926C40.0451 9.39881 40.2255 9.45746 40.4062 9.53566V8.14752V8.12798Z" fill="black"/>
<path d="M46.0664 8.519C45.5044 8.16706 44.8221 7.99112 44.0594 7.99112C43.2965 7.99112 42.6943 8.14752 42.1322 8.47989C41.5702 8.81226 41.1085 9.26195 40.7876 9.84849C40.4664 10.435 40.3057 11.0802 40.3057 11.8231C40.3057 12.5661 40.4664 13.2113 40.7876 13.7978C41.1085 14.3844 41.5702 14.8341 42.1525 15.1664C42.7345 15.4988 43.417 15.6552 44.1598 15.6552C44.9025 15.6552 45.2838 15.5574 45.7655 15.3424C46.2471 15.1273 46.6487 14.8341 46.9497 14.443C47.2509 14.052 47.4516 13.6219 47.5319 13.1526H46.0465C45.9462 13.5437 45.7253 13.8565 45.3841 14.0911C45.043 14.3257 44.6215 14.443 44.0993 14.443C43.5775 14.443 43.2364 14.3453 42.875 14.1302C42.5139 13.9151 42.2528 13.6219 42.0522 13.2113C41.8914 12.8789 41.811 12.4879 41.7712 12.0578H47.5721C47.6724 11.3148 47.5721 10.6305 47.311 10.0049C47.0503 9.37926 46.6288 8.89046 46.0465 8.53855L46.0664 8.519ZM41.8512 10.9238C41.8914 10.7087 41.9516 10.5132 42.0319 10.3373C42.2126 9.94623 42.4737 9.65298 42.8148 9.45746C43.156 9.26195 43.5576 9.16418 44.0392 9.16418C44.5209 9.16418 44.7819 9.24238 45.1031 9.37926C45.4243 9.53566 45.6449 9.73118 45.8256 10.0049C45.9864 10.2786 46.0867 10.5719 46.0867 10.9238H41.8512Z" fill="black"/>
<path d="M54.5174 9.22289C54.3165 8.83186 53.9754 8.53861 53.4937 8.32355C53.032 8.10846 52.5102 7.99118 51.9681 7.99118C51.426 7.99118 50.563 8.14758 49.981 8.46041C49.3988 8.77321 48.9573 9.22289 48.656 9.78989C48.3348 10.3764 48.1943 11.0411 48.1943 11.8037C48.1943 12.5661 48.3551 13.2309 48.656 13.8174C48.9772 14.404 49.4187 14.8341 49.981 15.1469C50.563 15.4597 51.2054 15.6161 51.9681 15.6161C52.7307 15.6161 53.0118 15.4988 53.4937 15.2838C53.9554 15.0492 54.2965 14.7559 54.5174 14.3649V15.4988H56.0228V5.07803H54.5174V9.20335V9.22289ZM54.1962 13.1527C53.9953 13.5437 53.7143 13.837 53.333 14.0716C52.9716 14.3062 52.55 14.404 52.0886 14.404C51.6269 14.404 51.2054 14.2867 50.844 14.0716C50.4826 13.8565 50.2016 13.5437 49.981 13.1527C49.7801 12.7617 49.6798 12.312 49.6798 11.8037C49.6798 11.2953 49.7801 10.8652 49.981 10.4742C50.1817 10.0831 50.4627 9.77032 50.844 9.55526C51.2054 9.34021 51.6269 9.22289 52.0886 9.22289C52.55 9.22289 52.9716 9.34021 53.333 9.55526C53.6943 9.77032 53.9753 10.0831 54.1962 10.4742C54.3969 10.8652 54.4972 11.3149 54.4972 11.8037C54.4972 12.2924 54.3969 12.7421 54.1962 13.1331V13.1527Z" fill="black"/>
<path d="M67.1428 10.4545C66.8216 10.2004 66.4602 10.044 66.0788 9.9462C66.3598 9.868 66.6209 9.7116 66.8617 9.49654C67.1026 9.28146 67.3032 9.02731 67.4437 8.73403C67.5842 8.4212 67.6646 8.1084 67.6646 7.75648C67.6646 7.26768 67.544 6.818 67.2833 6.427C67.0222 6.03597 66.6611 5.74268 66.2193 5.52763C65.7576 5.31257 65.2358 5.2148 64.6538 5.2148H60.4785V15.5183H64.6937C65.3564 15.5183 65.9583 15.3815 66.5004 15.1273C67.0424 14.8731 67.4437 14.5212 67.745 14.0715C68.0459 13.6219 68.2067 13.1135 68.2067 12.527C68.2067 11.9404 68.1061 11.7254 67.9257 11.3735C67.7247 11.002 67.4839 10.7087 67.1627 10.4545H67.1428ZM62.0443 6.52474H64.4529C64.7741 6.52474 65.0551 6.5834 65.3162 6.72026C65.5769 6.85711 65.7779 7.01351 65.9184 7.22857C66.0788 7.44365 66.139 7.69783 66.139 7.97154C66.139 8.24526 66.0589 8.47986 65.9184 8.71448C65.7779 8.94908 65.557 9.10551 65.3162 9.22283C65.0551 9.34011 64.7741 9.39877 64.4529 9.39877H62.0443V6.52474ZM66.3598 13.3481C66.1792 13.6219 65.9383 13.8174 65.6171 13.9738C65.2959 14.1302 64.9548 14.2084 64.5532 14.2084H62.0643V10.7087H64.5532C64.9548 10.7087 65.3162 10.7869 65.6171 10.9238C65.9383 11.0606 66.1792 11.2757 66.3598 11.5494C66.5405 11.8231 66.6409 12.1164 66.6409 12.4488C66.6409 12.7811 66.5605 13.0744 66.3598 13.3481Z" fill="black"/>
<path d="M74.1279 8.10846L71.9804 13.6219L69.8326 8.10846H68.2468L71.2174 15.4793L70.0734 18.1969H71.619L75.6737 8.10846H74.1279Z" fill="black"/>
</g>
<defs>
<clipPath id="clip0_270_2440">
<rect width="176" height="20" fill="white"/>
</clipPath>
</defs>
</svg>
