<svg width="20" height="20" viewBox="0 0 20 20" fill="none" xmlns="http://www.w3.org/2000/svg">
    <g clip-path="url(#clip0_270_2438)">
        <path
            d="M5.41675 10.8333L6.07046 12.1408C6.2917 12.5832 6.40233 12.8045 6.55011 12.9962C6.68124 13.1663 6.83375 13.3188 7.00388 13.45C7.19559 13.5978 7.41684 13.7084 7.85932 13.9296L9.16675 14.5833L7.85932 15.237C7.41684 15.4583 7.19559 15.5689 7.00388 15.7167C6.83375 15.8478 6.68124 16.0003 6.55011 16.1705C6.40233 16.3622 6.2917 16.5834 6.07046 17.0259L5.41675 18.3333L4.76303 17.0259C4.54179 16.5834 4.43117 16.3622 4.28339 16.1705C4.15225 16.0003 3.99974 15.8478 3.82962 15.7167C3.6379 15.5689 3.41666 15.4583 2.97418 15.237L1.66675 14.5833L2.97418 13.9296C3.41666 13.7084 3.6379 13.5978 3.82962 13.45C3.99974 13.3188 4.15225 13.1663 4.28339 12.9962C4.43117 12.8045 4.54179 12.5832 4.76303 12.1408L5.41675 10.8333Z"
            stroke="white" stroke-width="1.5" stroke-linecap="round" stroke-linejoin="round" />
        <path
            d="M12.5001 1.66666L13.4823 4.22035C13.7173 4.83137 13.8348 5.13688 14.0175 5.39387C14.1795 5.62163 14.3785 5.82062 14.6062 5.98257C14.8632 6.1653 15.1687 6.2828 15.7797 6.51781L18.3334 7.5L15.7797 8.48218C15.1687 8.71719 14.8632 8.8347 14.6062 9.01743C14.3785 9.17938 14.1795 9.37837 14.0175 9.60613C13.8348 9.86311 13.7173 10.1686 13.4823 10.7796L12.5001 13.3333L11.5179 10.7796C11.2829 10.1686 11.1654 9.86311 10.9827 9.60613C10.8207 9.37837 10.6217 9.17938 10.394 9.01743C10.137 8.8347 9.83146 8.71719 9.22043 8.48218L6.66675 7.5L9.22043 6.51781C9.83146 6.2828 10.137 6.1653 10.3939 5.98257C10.6217 5.82062 10.8207 5.62163 10.9827 5.39387C11.1654 5.13688 11.2829 4.83137 11.5179 4.22035L12.5001 1.66666Z"
            stroke="white" stroke-width="1.5" stroke-linecap="round" stroke-linejoin="round" />
    </g>
    <defs>
        <clipPath id="clip0_270_2438">
            <rect width="20" height="20" fill="white" />
        </clipPath>
    </defs>
</svg>